<svg width="400" height="400" viewBox="0 0 400 400" xmlns="http://www.w3.org/2000/svg">
  <defs>
    <radialGradient id="firefly-glow" cx="50%" cy="50%" r="50%">
      <stop offset="0%" stop-color="#fcd34d" stop-opacity="1"/> <!-- Bright Yellow Core -->
      <stop offset="40%" stop-color="#bef264" stop-opacity="0.4"/> <!-- Lime Halo -->
      <stop offset="100%" stop-color="#bef264" stop-opacity="0"/>
    </radialGradient>
  </defs>
  <rect width="400" height="400" fill="none"/>
  
  <!-- Tiny, Sharp Fireflies (Like Stars but Yellow/Green) -->
  <circle cx="40" cy="90" r="1.5" fill="white" opacity="0.9"/>
  <circle cx="40" cy="90" r="4" fill="url(#firefly-glow)" opacity="0.6"/>

  <circle cx="150" cy="50" r="1" fill="#fef08a" opacity="0.8"/>
  <circle cx="280" cy="120" r="1.5" fill="#bef264" opacity="0.9"/>
  
  <circle cx="350" cy="80" r="1.5" fill="white" opacity="0.9"/>
  <circle cx="350" cy="80" r="5" fill="url(#firefly-glow)" opacity="0.5"/>

  <circle cx="90" cy="200" r="1" fill="#fde047" opacity="0.7"/>
  <circle cx="210" cy="160" r="1.5" fill="#d9f99d" opacity="0.8"/>
  
  <circle cx="300" cy="250" r="2" fill="white" opacity="1"/>
  <circle cx="300" cy="250" r="6" fill="url(#firefly-glow)" opacity="0.4"/>

  <circle cx="50" cy="320" r="1" fill="#bef264" opacity="0.7"/>
  <circle cx="160" cy="350" r="1.5" fill="#fef08a" opacity="0.8"/>
  <circle cx="240" cy="300" r="1" fill="#d9f99d" opacity="0.6"/>

  <circle cx="380" cy="380" r="1.5" fill="white" opacity="0.9"/>
  <circle cx="380" cy="380" r="4" fill="url(#firefly-glow)" opacity="0.5"/>

  <circle cx="120" cy="280" r="0.8" fill="#fcd34d" opacity="0.6"/>
  <circle cx="200" cy="320" r="0.8" fill="#bef264" opacity="0.5"/>
  <circle cx="340" cy="180" r="1" fill="#fef08a" opacity="0.7"/>
  <circle cx="20" cy="150" r="0.8" fill="#bef264" opacity="0.5"/>
  <circle cx="260" cy="50" r="0.8" fill="#fcd34d" opacity="0.6"/>
</svg>
