<svg width="400" height="400" viewBox="0 0 400 400" xmlns="http://www.w3.org/2000/svg">
  <defs>
    <linearGradient id="leafGrad" x1="0%" y1="0%" x2="100%" y2="100%">
      <stop offset="0%" stop-color="#14532d" stop-opacity="0.3"/> 
      <stop offset="100%" stop-color="#052e16" stop-opacity="0.1"/>
    </linearGradient>
  </defs>
  <rect width="400" height="400" fill="none"/>
  
  <!-- "Dense Foliage" - Layered Leaf Shapes -->
  <g fill="url(#leafGrad)">
    <!-- Top Left Cluster -->
    <path d="M0,0 Q50,0 80,40 T100,100 Q60,120 20,80 T0,0 Z" />
    <path d="M80,0 Q120,20 140,60 T120,130 Q80,100 60,40 Z" />
    
    <!-- Center Cluster -->
    <path d="M150,150 Q200,120 250,160 T280,250 Q220,280 160,240 T150,150 Z" />
    <path d="M220,100 Q260,80 300,120 T320,200 Q260,220 220,160 Z" />
    
    <!-- Bottom Right Cluster -->
    <path d="M300,300 Q350,280 380,320 T400,380 Q360,400 320,380 T300,300 Z" />
    <path d="M250,320 Q280,300 320,340 T300,400 Q240,380 250,320 Z" />
    
    <!-- Fillers -->
    <path d="M50,250 Q80,200 120,240 T80,320 Q40,300 50,250 Z" opacity="0.7"/>
    <path d="M300,50 Q350,0 380,40 T350,120 Q300,100 300,50 Z" opacity="0.6"/>
    <path d="M180,350 Q220,320 250,360 T200,400 T180,350 Z" opacity="0.8"/>
    
    <!-- Overlapping Shadows -->
    <circle cx="100" cy="200" r="60" fill="#022c22" opacity="0.3"/>
    <circle cx="300" cy="100" r="50" fill="#022c22" opacity="0.2"/>
  </g>
</svg>
