<svg width="400" height="400" viewBox="0 0 400 400" xmlns="http://www.w3.org/2000/svg">
  <defs>
    <radialGradient id="star" cx="50%" cy="50%" r="50%">
      <stop offset="0%" stop-color="white" stop-opacity="1"/>
      <stop offset="100%" stop-color="white" stop-opacity="0"/>
    </radialGradient>
  </defs>
  <rect width="400" height="400" fill="none"/>
  <!-- Random Stars -->
  <circle cx="50" cy="50" r="1.5" fill="white" opacity="0.8"/>
  <circle cx="120" cy="80" r="1" fill="white" opacity="0.6"/>
  <circle cx="200" cy="40" r="2" fill="url(#star)"/>
  <circle cx="300" cy="150" r="1.5" fill="white" opacity="0.7"/>
  <circle cx="350" cy="50" r="1" fill="white" opacity="0.5"/>
  <circle cx="20" cy="200" r="1.5" fill="white" opacity="0.6"/>
  <circle cx="150" cy="250" r="1" fill="white" opacity="0.8"/>
  <circle cx="250" cy="300" r="2" fill="url(#star)"/>
  <circle cx="380" cy="380" r="1.5" fill="white" opacity="0.7"/>
  <circle cx="80" cy="350" r="1" fill="white" opacity="0.5"/>
  <circle cx="220" cy="180" r="1" fill="white" opacity="0.9"/>
  <circle cx="320" cy="220" r="1.5" fill="white" opacity="0.4"/>
  <circle cx="100" cy="300" r="1" fill="white" opacity="0.8"/>
  <circle cx="40" cy="120" r="2" fill="url(#star)" opacity="0.8"/>
  <circle cx="360" cy="100" r="1" fill="white" opacity="0.6"/>
  <circle cx="280" cy="350" r="1.5" fill="white" opacity="0.5"/>
  <circle cx="180" cy="120" r="1" fill="white" opacity="0.7"/>
  <circle cx="60" cy="280" r="1.5" fill="white" opacity="0.6"/>
  <circle cx="340" cy="300" r="1" fill="white" opacity="0.8"/>
  <circle cx="140" cy="20" r="1.5" fill="white" opacity="0.5"/>
  
  <!-- Smaller Dots -->
  <circle cx="15" cy="15" r="0.5" fill="white" opacity="0.4"/>
  <circle cx="85" cy="45" r="0.5" fill="white" opacity="0.4"/>
  <circle cx="165" cy="95" r="0.5" fill="white" opacity="0.4"/>
  <circle cx="245" cy="135" r="0.5" fill="white" opacity="0.4"/>
  <circle cx="315" cy="25" r="0.5" fill="white" opacity="0.4"/>
  <circle cx="55" cy="365" r="0.5" fill="white" opacity="0.4"/>
  <circle cx="135" cy="315" r="0.5" fill="white" opacity="0.4"/>
  <circle cx="215" cy="265" r="0.5" fill="white" opacity="0.4"/>
  <circle cx="295" cy="215" r="0.5" fill="white" opacity="0.4"/>
  <circle cx="375" cy="165" r="0.5" fill="white" opacity="0.4"/>
</svg>
